<?xml version="1.0" encoding="UTF-8"?>
<svg width="203px" height="30px" viewBox="0 0 203 30" version="1.1" xmlns="http://www.w3.org/2000/svg" xmlns:xlink="http://www.w3.org/1999/xlink">
    <!-- Generator: Sketch 55.1 (78136) - https://sketchapp.com -->
    <title>atom/logo/color</title>
    <desc>Created with Sketch.</desc>
    <g id="atom/logo/color" stroke="none" stroke-width="1" fill="none" fill-rule="evenodd">
        <g fill-rule="nonzero">
            <g id="Group">
                <path d="M34.3010753,0.459459459 C27.9569892,-0.702702703 21.6666667,1.45945946 17.3924731,5.81081081 L29.516129,15.2432432 L34.3010753,0.459459459 Z" id="Shape" fill="#FFC000"></path>
                <path d="M48.4139785,11.8918919 C46.1827957,6.54054054 41.5591398,2.24324324 35.5376344,0.72972973 C35.2688172,0.675675676 35.0268817,0.594594595 34.7580645,0.540540541 L33.4139785,16 L48.4139785,11.8918919 Z" id="Shape" fill="#FFC000"></path>
                <path d="M49.6505376,22.027027 C50.1612903,18.6216216 49.7311828,15.2432432 48.5215054,12.2162162 L37.3924731,17.6756757 C41.5591398,18.7837838 45.7258065,20.1891892 49.6505376,22.027027" id="Shape" fill="#FFC000"></path>
                <path d="M17.1505376,6.05405405 C15.0268817,8.2972973 13.4139785,11.0810811 12.5537634,14.2432432 C16.2634409,14.3783784 20.6989247,14.6756757 25.4569892,15.3243243 L17.1505376,6.05405405 Z" id="Shape" fill="#FFC000"></path>
                <path d="M49.4086022,23.3783784 C28.1451613,13.2432432 0.0806451613,16.0810811 0.0806451613,16.0810811 C18.4139785,17.1351351 33.1182796,22.9189189 41.155914,26.9189189 C43.0913978,27.8108108 44.9731183,28.7567568 46.7204301,29.7837838 C47.8763441,28.027027 48.7634409,26.0540541 49.3010753,23.8918919 C49.327957,23.7297297 49.3548387,23.5675676 49.4086022,23.3783784" id="Shape" fill="#00427A"></path>
            </g>
            <path d="M78,12 L82.8175182,12 L82.8175182,14.8509317 L82.8710462,14.8509317 C83.379562,13.9006211 83.9951338,13.1878882 84.7177616,12.7127329 C85.4136253,12.2375776 86.323601,12 87.3941606,12 C87.6618005,12 87.9562044,12 88.2238443,12.0263975 C88.4914842,12.052795 88.7591241,12.0791925 89,12.1583851 L89,16.5139752 C88.6520681,16.4083851 88.3309002,16.3291925 87.9829684,16.2763975 C87.6618005,16.2236025 87.3138686,16.197205 86.9391727,16.197205 C86.0291971,16.197205 85.2798054,16.3291925 84.7445255,16.5667702 C84.2092457,16.8307453 83.8077859,17.173913 83.513382,17.6226708 C83.2189781,18.0714286 83.0316302,18.6257764 82.9513382,19.2593168 C82.8710462,19.8928571 82.8175182,20.6055901 82.8175182,21.3447205 L82.8175182,29 L78,29 L78,12 L78,12 Z" id="Shape" fill="#00427A"></path>
            <path d="M168,12 L172.817518,12 L172.817518,14.8509317 L172.871046,14.8509317 C173.379562,13.9006211 173.995134,13.1878882 174.717762,12.7127329 C175.413625,12.2375776 176.323601,12 177.394161,12 C177.6618,12 177.956204,12 178.223844,12.0263975 C178.491484,12.052795 178.759124,12.0791925 179,12.1583851 L179,16.5139752 C178.652068,16.4083851 178.3309,16.3291925 177.982968,16.2763975 C177.6618,16.2236025 177.313869,16.197205 176.939173,16.197205 C176.029197,16.197205 175.279805,16.3291925 174.744526,16.5667702 C174.209246,16.8307453 173.807786,17.173913 173.513382,17.6226708 C173.218978,18.0714286 173.03163,18.6257764 172.951338,19.2593168 C172.871046,19.8928571 172.817518,20.6055901 172.817518,21.3447205 L172.817518,29 L168,29 L168,12 Z" id="Shape" fill="#00427A"></path>
            <path d="M89,21 C89,19.6238532 89.2098765,18.3853211 89.6558642,17.2844037 C90.1018519,16.1834862 90.7052469,15.2201835 91.4660494,14.4495413 C92.2268519,13.6513761 93.1450617,13.0458716 94.1682099,12.6330275 C95.2175926,12.2201835 96.3194444,12 97.5,12 C98.6805556,12 99.7824074,12.2201835 100.83179,12.6330275 C101.881173,13.0458716 102.773148,13.6788991 103.533951,14.4495413 C104.294753,15.2477064 104.898148,16.1834862 105.344136,17.2844037 C105.790123,18.3853211 106,19.6238532 106,21 C106,22.3761468 105.790123,23.6146789 105.344136,24.7155963 C104.898148,25.8165138 104.294753,26.7798165 103.533951,27.5504587 C102.773148,28.3486239 101.854938,28.9541284 100.83179,29.3669725 C99.7824074,29.7798165 98.6805556,30 97.5,30 C96.3194444,30 95.2175926,29.7798165 94.1682099,29.3669725 C93.1188272,28.9541284 92.2268519,28.3486239 91.4660494,27.5504587 C90.7052469,26.7522936 90.1018519,25.8165138 89.6558642,24.7155963 C89.2361111,23.6146789 89,22.3761468 89,21 M93.7484568,21 C93.7484568,22.293578 94.0895062,23.3394495 94.7453704,24.1376147 C95.4012346,24.9357798 96.345679,25.3486239 97.5262346,25.3486239 C98.7330247,25.3486239 99.6512346,24.9357798 100.307099,24.1376147 C100.962963,23.3394495 101.304012,22.293578 101.304012,21 C101.304012,19.706422 100.962963,18.6605505 100.307099,17.8623853 C99.6512346,17.0642202 98.7067901,16.6513761 97.5262346,16.6513761 C96.3194444,16.6513761 95.4012346,17.0642202 94.7453704,17.8623853 C94.0632716,18.6605505 93.7484568,19.706422 93.7484568,21" id="Shape" fill="#00427A"></path>
            <path d="M180,21 C180,19.6238532 180.209877,18.3853211 180.655864,17.2844037 C181.101852,16.1834862 181.705247,15.2201835 182.466049,14.4495413 C183.226852,13.6513761 184.145062,13.0458716 185.16821,12.6330275 C186.217593,12.2201835 187.319444,12 188.5,12 C189.680556,12 190.782407,12.2201835 191.83179,12.6330275 C192.881173,13.0458716 193.773148,13.6788991 194.533951,14.4495413 C195.294753,15.2477064 195.898148,16.1834862 196.344136,17.2844037 C196.790123,18.3853211 197,19.6238532 197,21 C197,22.3761468 196.790123,23.6146789 196.344136,24.7155963 C195.898148,25.8165138 195.294753,26.7798165 194.533951,27.5504587 C193.773148,28.3486239 192.854938,28.9541284 191.83179,29.3669725 C190.782407,29.7798165 189.680556,30 188.5,30 C187.319444,30 186.217593,29.7798165 185.16821,29.3669725 C184.118827,28.9541284 183.226852,28.3486239 182.466049,27.5504587 C181.705247,26.7522936 181.101852,25.8165138 180.655864,24.7155963 C180.236111,23.6146789 180,22.3761468 180,21 M184.748457,21 C184.748457,22.293578 185.089506,23.3394495 185.74537,24.1376147 C186.401235,24.9357798 187.345679,25.3486239 188.526235,25.3486239 C189.733025,25.3486239 190.651235,24.9357798 191.307099,24.1376147 C191.962963,23.3394495 192.304012,22.293578 192.304012,21 C192.304012,19.706422 191.962963,18.6605505 191.307099,17.8623853 C190.651235,17.0642202 189.70679,16.6513761 188.526235,16.6513761 C187.319444,16.6513761 186.401235,17.0642202 185.74537,17.8623853 C185.063272,18.6605505 184.748457,19.706422 184.748457,21" id="Shape" fill="#00427A"></path>
            <path d="M108.405229,16.3488624 L106,16.3488624 L106,12.5839653 L108.405229,12.5839653 L108.405229,11.3921993 C108.405229,10.5254605 108.588235,9.71289274 108.718954,8.92741062 C108.875817,8.16901408 109.137255,7.49187432 109.555556,6.89599133 C109.973856,6.30010834 110.575163,5.8396533 111.359477,5.51462622 C112.143791,5.18959913 113.163399,5 114.444444,5 C115.72549,5 117.294118,5.37919827 118,5.5687974 L117.006536,9.41495125 C116.745098,9.30660888 116.48366,9.22535211 116.248366,9.17118093 C116.013072,9.11700975 115.751634,9.08992416 115.464052,9.08992416 C114.705882,9.08992416 114.130719,9.2524377 113.764706,9.60455038 C113.398693,9.92957746 113.189542,10.6338028 113.189542,11.6630553 L113.189542,12.5568797 L115.620915,12.5568797 L115.620915,16.2946912 L113.189542,16.2946912 L113.189542,30 L108.379085,30 L108.405229,16.3488624 Z" id="Shape" fill="#00427A"></path>
            <path d="M166,29.5909091 L161.189189,29.5909091 L161.189189,27.4363636 C161.189189,27.4363636 160.891892,27.9818182 160.621622,28.3636364 C160.378378,28.6909091 160.027027,28.9363636 159.648649,29.1818182 C159.27027,29.4272727 158.837838,29.6181818 158.351351,29.7818182 C157.864865,29.9454545 157.351351,30 156.783784,30 C155.594595,30 154.513514,29.8090909 153.756757,29.4272727 C153,29.0454545 152.432432,28.5272727 152.027027,27.8454545 C151.621622,27.1636364 151.351351,26.3727273 151.216216,25.4454545 C151.081081,24.5181818 151,23.5363636 151,22.4727273 L151,12.0545455 L156.027027,12.0545455 L156.027027,21.4909091 C156.027027,21.9545455 156.054054,22.4181818 156.081081,22.9090909 C156.108108,23.4 156.216216,23.8636364 156.351351,24.2727273 C156.513514,24.6818182 156.756757,25.0363636 157.081081,25.2818182 C157.405405,25.5545455 157.675676,25.6636364 158.297297,25.6636364 C158.918919,25.6636364 159.216216,25.5545455 159.594595,25.3090909 C159.972973,25.0909091 160.27027,24.7636364 160.459459,24.3818182 C160.648649,24 160.783784,23.5636364 160.864865,23.1 C160.918919,22.6090909 160.972973,22.1181818 160.972973,21.6 L160.972973,12 L166,12 L166,29.5909091 Z" id="Shape" fill="#00427A"></path>
            <path d="M134,29.5909091 L129.189189,29.5909091 L129.189189,27.4363636 C129.189189,27.4363636 128.891892,27.9818182 128.621622,28.3636364 C128.378378,28.6909091 128.027027,28.9363636 127.648649,29.1818182 C127.27027,29.4272727 126.837838,29.6181818 126.351351,29.7818182 C125.864865,29.9454545 125.351351,30 124.783784,30 C123.594595,30 122.513514,29.8090909 121.756757,29.4272727 C121,29.0454545 120.432432,28.5272727 120.027027,27.8454545 C119.621622,27.1636364 119.351351,26.3727273 119.216216,25.4454545 C119.081081,24.5181818 119,23.5363636 119,22.4727273 L119,12.0545455 L124.027027,12.0545455 L124.027027,21.4909091 C124.027027,21.9545455 124.054054,22.4181818 124.081081,22.9090909 C124.108108,23.4 124.216216,23.8636364 124.351351,24.2727273 C124.513514,24.6818182 124.756757,25.0363636 125.081081,25.2818182 C125.405405,25.5545455 125.675676,25.6636364 126.297297,25.6636364 C126.918919,25.6636364 127.216216,25.5545455 127.594595,25.3090909 C127.972973,25.0909091 128.27027,24.7636364 128.459459,24.3818182 C128.648649,24 128.783784,23.5636364 128.864865,23.1 C128.918919,22.6090909 128.945946,22.1181818 128.972973,21.6 L128.972973,12 L134,12 L134,29.5909091 Z" id="Shape" fill="#00427A"></path>
            <path d="M148,15.9656398 L143.184382,15.9656398 L143.184382,22.9146919 C143.184382,23.3507109 143.210412,23.7594787 143.236443,24.1137441 C143.288503,24.4680095 143.366594,24.7950237 143.522777,25.0402844 C143.678959,25.3127962 143.887202,25.5035545 144.199566,25.6398104 C144.511931,25.7760664 144.902386,25.8578199 145.396963,25.8578199 C145.657267,25.8578199 145.969631,25.8305687 146.386117,25.7760664 C146.802603,25.721564 147.27115,25.5853081 147.97397,25.0947867 L147.97397,29.1824645 C146.932755,29.6729858 146.229935,29.8092417 145.683297,29.8909953 C145.110629,29.9454976 144.563991,30 144.017354,30 C143.236443,30 142.403471,29.9182464 141.726681,29.7274882 C141.049892,29.563981 140.477223,29.264218 139.982646,28.8827014 C139.488069,28.5011848 139.175705,28.0106635 138.915401,27.3838863 C138.629067,26.7843602 138.394794,26.021327 138.394794,25.1492891 L138.394794,15.9383886 L136,15.9383886 L136,12.014218 L138.394794,12.014218 L138.394794,7 L143.184382,7 L143.184382,12.0414692 L148,12.0414692 L148,15.9656398 L148,15.9656398 Z" id="Shape" fill="#00427A"></path>
            <path d="M59,5 L67.4083205,5 C68.587057,5 69.6872111,5.10869565 70.7349769,5.35326087 C71.7827427,5.59782609 72.6995378,5.97826087 73.459168,6.54891304 C74.2449923,7.11956522 74.8474576,7.88043478 75.3189522,8.85869565 C75.7642527,9.80978261 76,11.0326087 76,12.5 C76,13.9402174 75.7904468,15.1630435 75.3713405,16.1141304 C74.9522342,17.0923913 74.3497689,17.8804348 73.6163328,18.451087 C72.8828968,19.0217391 71.9922958,19.4565217 70.9707242,19.701087 C69.9491525,19.9456522 68.8489985,20.0543478 67.6440678,20.0543478 L63.8197227,20.0543478 L63.8197227,30 L59.0261941,30 L59,5 Z M63.9506934,15.0271739 L67.6702619,15.0271739 C68.1155624,15.0271739 68.5608629,15 68.953775,14.9184783 C69.3728814,14.8369565 69.7395994,14.701087 70.0801233,14.5108696 C70.4206471,14.3206522 70.6825886,14.048913 70.8921418,13.7228261 C71.1016949,13.3967391 71.2064715,12.9891304 71.2064715,12.4728261 C71.2064715,11.9293478 71.0755008,11.4945652 70.8135593,11.1684783 C70.5516179,10.8423913 70.211094,10.5706522 69.7919877,10.4076087 C69.3728814,10.2173913 68.9013867,10.1086957 68.403698,10.0543478 C67.8798151,10 67.4083205,9.97282609 66.9368259,9.97282609 L64.0030817,9.97282609 L63.9506934,15.0271739 Z" id="Shape" fill="#00427A"></path>
            <path d="M200.027778,14.3055556 L200.583333,14.3055556 C200.944444,14.3055556 201.194444,14.2222222 201.194444,13.8611111 C201.194444,13.5277778 200.944444,13.4444444 200.583333,13.4444444 L200.027778,13.4444444 L200.027778,14.3055556 Z M199.555556,13.0277778 L200.666667,13.0277778 C201.333333,13.0277778 201.666667,13.3055556 201.666667,13.8333333 C201.666667,14.3055556 201.361111,14.6388889 200.916667,14.6388889 L201.75,15.9444444 L201.25,15.9444444 L200.444444,14.6388889 L200.027778,14.6388889 L200.027778,15.9444444 L199.555556,15.9444444 L199.555556,13.0277778 Z M200.5,16.5555556 C201.638889,16.5555556 202.527778,15.6944444 202.527778,14.5 C202.527778,13.3333333 201.638889,12.4444444 200.5,12.4444444 C199.361111,12.4444444 198.5,13.3333333 198.5,14.5 C198.5,15.6666667 199.361111,16.5555556 200.5,16.5555556 L200.5,16.5555556 Z M200.5,12 C201.888889,12 203,13.1111111 203,14.5 C203,15.8888889 201.888889,17 200.5,17 C199.111111,17 198,15.8888889 198,14.5 C198.027778,13.1111111 199.138889,12 200.5,12 L200.5,12 Z" id="Shape" fill="#00427A"></path>
        </g>
    </g>
</svg>